<svg id="visual" viewBox="0 0 900 600" width="900" height="600" xmlns="http://www.w3.org/2000/svg" xmlns:xlink="http://www.w3.org/1999/xlink" version="1.1"><g stroke-width="1" stroke-linejoin="bevel"><path d="M422 294L513 385L513 303Z" fill="#003990" stroke="#003990"></path><path d="M422 294L424 438L513 385Z" fill="#002b5d" stroke="#002b5d"></path><path d="M487 501L575 375L513 385Z" fill="#0941b1" stroke="#0941b1"></path><path d="M513 385L575 375L513 303Z" fill="#0941b1" stroke="#0941b1"></path><path d="M575 375L593 294L513 303Z" fill="#003da1" stroke="#003da1"></path><path d="M513 303L433 197L422 294Z" fill="#1b44c2" stroke="#1b44c2"></path><path d="M521 167L433 197L513 303Z" fill="#00306e" stroke="#00306e"></path><path d="M424 438L487 501L513 385Z" fill="#00306e" stroke="#00306e"></path><path d="M287 301L293 366L422 294Z" fill="#003990" stroke="#003990"></path><path d="M422 294L293 366L424 438Z" fill="#00357f" stroke="#00357f"></path><path d="M424 438L367 523L487 501Z" fill="#00101c" stroke="#00101c"></path><path d="M433 197L287 301L422 294Z" fill="#0941b1" stroke="#0941b1"></path><path d="M293 366L336 474L424 438Z" fill="#00357f" stroke="#00357f"></path><path d="M593 294L521 167L513 303Z" fill="#002b5d" stroke="#002b5d"></path><path d="M639 521L664 363L575 375Z" fill="#002b5d" stroke="#002b5d"></path><path d="M575 375L664 363L593 294Z" fill="#00357f" stroke="#00357f"></path><path d="M593 294L638 229L521 167Z" fill="#0941b1" stroke="#0941b1"></path><path d="M336 474L367 523L424 438Z" fill="#00101c" stroke="#00101c"></path><path d="M664 363L638 229L593 294Z" fill="#00254d" stroke="#00254d"></path><path d="M287 301L231 365L293 366Z" fill="#003da1" stroke="#003da1"></path><path d="M293 366L231 365L336 474Z" fill="#003990" stroke="#003990"></path><path d="M336 474L313 600L367 523Z" fill="#0941b1" stroke="#0941b1"></path><path d="M638 229L569 123L521 167Z" fill="#00101c" stroke="#00101c"></path><path d="M472 73L384 101L433 197Z" fill="#003990" stroke="#003990"></path><path d="M604 600L639 521L487 501Z" fill="#003da1" stroke="#003da1"></path><path d="M487 501L639 521L575 375Z" fill="#00357f" stroke="#00357f"></path><path d="M472 73L433 197L521 167Z" fill="#1b44c2" stroke="#1b44c2"></path><path d="M433 197L265 166L287 301Z" fill="#003da1" stroke="#003da1"></path><path d="M287 301L165 338L231 365Z" fill="#003da1" stroke="#003da1"></path><path d="M406 600L477 600L487 501Z" fill="#003da1" stroke="#003da1"></path><path d="M313 600L406 600L367 523Z" fill="#00101c" stroke="#00101c"></path><path d="M367 523L406 600L487 501Z" fill="#00254d" stroke="#00254d"></path><path d="M384 101L265 166L433 197Z" fill="#00101c" stroke="#00101c"></path><path d="M569 123L472 73L521 167Z" fill="#001f3c" stroke="#001f3c"></path><path d="M724 600L675 516L639 521Z" fill="#00101c" stroke="#00101c"></path><path d="M639 521L675 516L664 363Z" fill="#001f3c" stroke="#001f3c"></path><path d="M664 363L736 260L638 229Z" fill="#0941b1" stroke="#0941b1"></path><path d="M638 229L711 190L569 123Z" fill="#00101c" stroke="#00101c"></path><path d="M771 323L736 260L664 363Z" fill="#003990" stroke="#003990"></path><path d="M736 260L711 190L638 229Z" fill="#003da1" stroke="#003da1"></path><path d="M572 0L483 0L472 73Z" fill="#00306e" stroke="#00306e"></path><path d="M477 600L604 600L487 501Z" fill="#0941b1" stroke="#0941b1"></path><path d="M229 537L313 600L336 474Z" fill="#00254d" stroke="#00254d"></path><path d="M183 226L165 338L287 301Z" fill="#001f3c" stroke="#001f3c"></path><path d="M231 365L229 537L336 474Z" fill="#00357f" stroke="#00357f"></path><path d="M384 101L270 111L265 166Z" fill="#003da1" stroke="#003da1"></path><path d="M265 166L183 226L287 301Z" fill="#00254d" stroke="#00254d"></path><path d="M293 0L270 111L384 101Z" fill="#002b5d" stroke="#002b5d"></path><path d="M131 463L229 537L231 365Z" fill="#0941b1" stroke="#0941b1"></path><path d="M239 124L183 226L265 166Z" fill="#00182b" stroke="#00182b"></path><path d="M799 411L771 323L664 363Z" fill="#00254d" stroke="#00254d"></path><path d="M736 260L777 225L711 190Z" fill="#001f3c" stroke="#001f3c"></path><path d="M270 111L239 124L265 166Z" fill="#003da1" stroke="#003da1"></path><path d="M771 323L777 225L736 260Z" fill="#00357f" stroke="#00357f"></path><path d="M675 516L799 411L664 363Z" fill="#0941b1" stroke="#0941b1"></path><path d="M771 323L900 330L777 225Z" fill="#0941b1" stroke="#0941b1"></path><path d="M818 511L799 411L675 516Z" fill="#00306e" stroke="#00306e"></path><path d="M572 0L472 73L569 123Z" fill="#003990" stroke="#003990"></path><path d="M472 73L390 0L384 101Z" fill="#1b44c2" stroke="#1b44c2"></path><path d="M270 111L190 0L239 124Z" fill="#00101c" stroke="#00101c"></path><path d="M713 94L569 123L711 190Z" fill="#001f3c" stroke="#001f3c"></path><path d="M61 298L113 365L165 338Z" fill="#1b44c2" stroke="#1b44c2"></path><path d="M165 338L131 463L231 365Z" fill="#00182b" stroke="#00182b"></path><path d="M483 0L390 0L472 73Z" fill="#00306e" stroke="#00306e"></path><path d="M113 365L131 463L165 338Z" fill="#003990" stroke="#003990"></path><path d="M827 94L713 94L711 190Z" fill="#001f3c" stroke="#001f3c"></path><path d="M676 0L572 0L569 123Z" fill="#00357f" stroke="#00357f"></path><path d="M604 600L724 600L639 521Z" fill="#1b44c2" stroke="#1b44c2"></path><path d="M390 0L293 0L384 101Z" fill="#00306e" stroke="#00306e"></path><path d="M65 219L61 298L183 226Z" fill="#0941b1" stroke="#0941b1"></path><path d="M183 226L61 298L165 338Z" fill="#00254d" stroke="#00254d"></path><path d="M131 463L176 600L229 537Z" fill="#00254d" stroke="#00254d"></path><path d="M229 537L176 600L313 600Z" fill="#1b44c2" stroke="#1b44c2"></path><path d="M724 600L818 511L675 516Z" fill="#00254d" stroke="#00254d"></path><path d="M799 411L900 330L771 323Z" fill="#00357f" stroke="#00357f"></path><path d="M821 0L676 0L713 94Z" fill="#1b44c2" stroke="#1b44c2"></path><path d="M713 94L676 0L569 123Z" fill="#002b5d" stroke="#002b5d"></path><path d="M65 219L183 226L59 78Z" fill="#003da1" stroke="#003da1"></path><path d="M113 365L0 377L131 463Z" fill="#001f3c" stroke="#001f3c"></path><path d="M131 463L91 600L176 600Z" fill="#002b5d" stroke="#002b5d"></path><path d="M724 600L784 600L818 511Z" fill="#003990" stroke="#003990"></path><path d="M59 78L183 226L239 124Z" fill="#1b44c2" stroke="#1b44c2"></path><path d="M900 398L799 411L900 499Z" fill="#1b44c2" stroke="#1b44c2"></path><path d="M900 398L900 330L799 411Z" fill="#00101c" stroke="#00101c"></path><path d="M777 225L827 94L711 190Z" fill="#002b5d" stroke="#002b5d"></path><path d="M293 0L190 0L270 111Z" fill="#1b44c2" stroke="#1b44c2"></path><path d="M900 499L799 411L818 511Z" fill="#00254d" stroke="#00254d"></path><path d="M900 217L827 94L777 225Z" fill="#00357f" stroke="#00357f"></path><path d="M0 484L91 600L131 463Z" fill="#1b44c2" stroke="#1b44c2"></path><path d="M900 330L900 217L777 225Z" fill="#00254d" stroke="#00254d"></path><path d="M900 600L900 499L818 511Z" fill="#00254d" stroke="#00254d"></path><path d="M61 298L0 377L113 365Z" fill="#003da1" stroke="#003da1"></path><path d="M0 265L0 377L61 298Z" fill="#002b5d" stroke="#002b5d"></path><path d="M0 220L0 265L65 219Z" fill="#002b5d" stroke="#002b5d"></path><path d="M65 219L0 265L61 298Z" fill="#0941b1" stroke="#0941b1"></path><path d="M0 90L0 220L65 219Z" fill="#1b44c2" stroke="#1b44c2"></path><path d="M0 377L0 484L131 463Z" fill="#00306e" stroke="#00306e"></path><path d="M190 0L59 78L239 124Z" fill="#00182b" stroke="#00182b"></path><path d="M900 217L900 109L827 94Z" fill="#00357f" stroke="#00357f"></path><path d="M827 94L821 0L713 94Z" fill="#003da1" stroke="#003da1"></path><path d="M900 0L821 0L827 94Z" fill="#1b44c2" stroke="#1b44c2"></path><path d="M784 600L900 600L818 511Z" fill="#003990" stroke="#003990"></path><path d="M190 0L71 0L59 78Z" fill="#003990" stroke="#003990"></path><path d="M59 78L0 90L65 219Z" fill="#00306e" stroke="#00306e"></path><path d="M0 0L0 90L59 78Z" fill="#00101c" stroke="#00101c"></path><path d="M0 484L0 600L91 600Z" fill="#0941b1" stroke="#0941b1"></path><path d="M900 109L900 0L827 94Z" fill="#1b44c2" stroke="#1b44c2"></path><path d="M71 0L0 0L59 78Z" fill="#001f3c" stroke="#001f3c"></path></g></svg>